inDegrees=yes
name=ik_S56_A10_T01
DataType=double
version=3
OpenSimVersion=4.3-2021-08-27-4bc7ad9
endheader
time	pelvis_tilt	pelvis_list	pelvis_rotation	pelvis_tx	pelvis_ty	pelvis_tz	hip_flexion_r	hip_adduction_r	hip_rotation_r	knee_angle_r	knee_angle_r_beta	ankle_angle_r	subtalar_angle_r	mtp_angle_r	hip_flexion_l	hip_adduction_l	hip_rotation_l	knee_angle_l	knee_angle_l_beta	ankle_angle_l	subtalar_angle_l	mtp_angle_l	lumbar_extension	lumbar_bending	lumbar_rotation	arm_flex_r	arm_add_r	arm_rot_r	elbow_flex_r	pro_sup_r	wrist_flex_r	wrist_dev_r	arm_flex_l	arm_add_l	arm_rot_l	elbow_flex_l	pro_sup_l	wrist_flex_l	wrist_dev_l
17.15999999999972	-1.561404220680296	-0.2345572317034301	19.47209771101457	0	0.9399999999999999	0	44.9648351624374	-10.00000279935187	-9.999996742208355	54.96988664598338	0.9594055114204726	0	0	0	44.9648351624374	-10.00000279935187	-9.999996742208355	54.96988664598338	0.9594055114204726	0	0	0	-1.486147496068895	0.2309332700990805	5.304250102694289	92.14714756282976	-21.737652637294	36.77022319066051	68.68223042786713	58.57227278827136	0	0	90.49659821361314	-4.771636132825275	9.637328332690307	68.4415102894913	73.2471223325371	0	0
17.17999999999972	-1.647419630247153	-0.3227247665374928	19.64726503727887	0	0.9399999999999999	0	44.96485181528197	-10.00000279474124	-9.999996745648129	54.96989631364364	0.959405680152975	0	0	0	44.96485181528197	-10.00000279474124	-9.999996745648129	54.96989631364364	0.959405680152975	0	0	0	-1.599788637796897	0.1784124731121092	5.15270717263059	90.56378806873779	-21.38567839013247	35.24443166511473	71.45343416059058	60.00734528591127	0	0	90.72358275136261	-4.72266349108419	9.855794599733391	69.79136172642056	72.83819930422071	0	0
17.19999999999972	-1.651540228928957	-0.3563636941961351	19.82879537951131	0	0.9399999999999999	0	44.96555219010949	-10.00000266298805	-9.999996859478308	54.97042601286872	0.959414925148498	0	0	0	44.96555219010949	-10.00000266298805	-9.999996859478308	54.97042601286872	0.959414925148498	0	0	0	-1.621623659360125	0.1528787328819278	4.956650774984015	86.36601724590274	-20.43608143794713	32.08423342161169	75.57107989644116	63.0737959134306	0	0	89.07357117857541	-4.178502290940019	9.456385373905004	71.46347863215904	74.01585006174051	0	0
17.21999999999972	-1.658474186529662	-0.3464371687726769	19.92815467806197	0	0.9399999999999999	0	44.96557031155473	-10.00000265812015	-9.999996863159422	54.97043656902823	0.9594151093882378	0	0	0	44.96557031155473	-10.00000265812015	-9.999996863159422	54.97043656902823	0.9594151093882378	0	0	0	-1.625738694383966	0.1714655975378387	4.730675743690614	86.29439065488437	-20.24136940203065	32.24835595648927	76.64840669857902	61.56869111630683	0	0	89.06400436346755	-4.2639890732344	9.57728446720893	71.96577702158949	74.57769430371751	0	0
17.23999999999972	-1.680442242346104	-0.3396553905962731	19.78855748712942	0	0.9399999999999999	0	44.96668994572358	-10.00000245952552	-9.999997039159984	54.97129872640689	0.9594301568731658	0	0	0	44.96668994572358	-10.00000245952552	-9.999997039159984	54.97129872640689	0.9594301568731658	0	0	0	-1.648003616221178	0.1857024374238859	4.714438168734686	80.90933361709166	-18.93121102242537	29.74411258525014	78.61140822764128	64.2153688864811	0	0	84.94785424816969	-3.229756289781444	9.211429495752951	75.53102706210132	76.27038569168177	0	0
17.25999999999972	-1.681886788681295	-0.3396289767682145	19.48729596393897	0	0.9399999999999999	0	44.96725495719292	-10.00000236232021	-9.99999712645557	54.97173363376964	0.9594377474385869	0	0	0	44.96725495719292	-10.00000236232021	-9.99999712645557	54.97173363376964	0.9594377474385869	0	0	0	-1.647011422708964	0.1655319098197697	4.945683575281114	77.9067548173113	-18.33591980913391	28.26860298840064	79.77465909827295	63.15659849695355	0	0	81.88938435778525	-2.546452540388363	9.925771161086429	77.70577392623417	69.91284442211419	0	0
17.27999999999972	-1.724193438203609	-0.3217911899493229	19.40107050008567	0	0.9399999999999999	0	44.96845240875416	-10.00000216031005	-9.999997309888908	54.97264554979127	0.959453663375666	0	0	0	44.96845240875416	-10.00000216031005	-9.999997309888908	54.97264554979127	0.959453663375666	0	0	0	-1.676444426772288	0.1846358516714912	4.823956507162781	74.6631347682262	-17.59930659391521	26.58376772088731	80.04282430874795	64.51443515696312	0	0	74.40480336137242	-1.873912043150492	9.703832746088485	83.0281649055637	77.60180338800109	0	0
17.29999999999972	-1.86186167045187	-0.4592525753835527	19.45449259415159	0	0.9399999999999999	0	44.96908888615879	-10.00000205995771	-9.999997403619901	54.97314000414939	0.959462293232216	0	0	0	44.96908888615879	-10.00000205995771	-9.999997403619901	54.97314000414939	0.959462293232216	0	0	0	-1.857502442793792	0.1244149954632147	4.486218351127119	71.68032759539089	-16.7035517967504	24.50724009973982	82.38905416629387	67.10287130477286	0	0	71.12580991405429	-2.763806106373347	8.790539370230297	85.96436620891244	79.93242997174849	0	0
17.31999999999972	-1.903868245163181	-0.5119389916587058	19.53767941631641	0	0.9399999999999999	0	44.96966143725877	-10.00000196849016	-9.999997488651967	54.97357638305444	0.9594699094808955	0	0	0	44.96966143725877	-10.00000196849016	-9.999997488651967	54.97357638305444	0.9594699094808955	0	0	0	-1.915688430731831	0.08500923625264964	4.32810848442888	68.43186088752047	-16.20041491117275	22.46948751790127	82.45912737525805	67.33493758644036	0	0	67.5460365810375	-3.700347720448413	7.3566474029302	88.46627015227084	78.20395095260892	0	0
17.33999999999972	-1.908633704522037	-0.6102495381781278	19.64505771910589	0	0.9399999999999999	0	44.97021613311155	-10.00000188284298	-9.999997569478124	54.9740018931654	0.9594773360333323	0	0	0	44.97021613311155	-10.00000188284298	-9.999997569478124	54.9740018931654	0.9594773360333323	0	0	0	-1.954570495308345	-0.009252589077218119	4.098271572208716	65.22112546284698	-15.75325755090993	20.44960517427377	82.03468001461285	67.04669060139449	0	0	63.87397098663988	-4.449539602220015	5.289225144810372	90.3203708386784	78.55027499101732	0	0
17.35999999999972	-1.957732599428065	-0.7196583777532055	19.77167491432044	0	0.9399999999999999	0	44.97071832082364	-10.00000180693664	-9.999997641801052	54.97438732120082	0.9594840630215798	0	0	0	44.97071832082364	-10.00000180693664	-9.999997641801052	54.97438732120082	0.9594840630215798	0	0	0	-2.041591363033885	-0.09325129944396586	3.823325126278928	62.10178607860384	-15.0409528093826	18.54171002855236	81.12412682234195	67.0965812390602	0	0	60.08883436248317	-4.988746602673494	2.952966236385141	88.21944332897836	78.27525673194927	0	0
